<svg width="36" height="36" viewBox="0 0 36 36" fill="none" xmlns="http://www.w3.org/2000/svg">
<g clip-path="url(#clip0_745_5611)">
<path d="M16.084 0.101562C18.4674 -0.155319 20.8785 0.0758012 23.1699 0.78125C23.3744 0.822191 23.5688 0.906042 23.7393 1.02637C23.9096 1.14666 24.0529 1.30145 24.1602 1.48047C24.2675 1.65958 24.3364 1.85911 24.3623 2.06641C24.3882 2.27375 24.3706 2.48446 24.3105 2.68457C24.2505 2.8846 24.1493 3.0699 24.0137 3.22852C23.878 3.38713 23.7105 3.51537 23.5225 3.60547C23.3343 3.69558 23.1294 3.7458 22.9209 3.75195C22.7124 3.7581 22.5046 3.72046 22.3115 3.6416C20.3728 3.05757 18.3373 2.86659 16.3242 3.08105C14.3342 3.28522 12.4057 3.89103 10.6553 4.86133C8.96908 5.79341 7.47843 7.04297 6.26465 8.54102C5.01488 10.0673 4.08161 11.8285 3.51953 13.7207C2.95749 15.6128 2.77786 17.598 2.99121 19.5605C3.19498 21.5545 3.79919 23.4864 4.76758 25.2402C5.6979 26.9299 6.94419 28.4244 8.43945 29.6406C9.96259 30.8928 11.7201 31.8274 13.6084 32.3906C15.4968 32.9538 17.4788 33.1337 19.4375 32.9199C21.4275 32.7158 23.3561 32.1109 25.1064 31.1406C26.7928 30.2085 28.2832 28.9582 29.4971 27.46C30.7468 25.9338 31.6801 24.1733 32.2422 22.2812C32.8043 20.3891 32.9839 18.403 32.7705 16.4404C32.7509 16.2345 32.7726 16.0269 32.833 15.8291C32.8936 15.6311 32.9925 15.4468 33.124 15.2871C33.2556 15.1274 33.417 14.9946 33.5996 14.8975C33.782 14.8005 33.9819 14.7404 34.1875 14.7207C34.3932 14.701 34.6012 14.7225 34.7988 14.7832C34.9964 14.8439 35.1804 14.9433 35.3398 15.0752C35.4991 15.207 35.6307 15.3689 35.7275 15.5518C35.8244 15.7346 35.8846 15.9346 35.9043 16.1406C36.2677 19.6583 35.5885 23.2054 33.9521 26.3389C32.3157 29.4723 29.7947 32.0535 26.7031 33.7598C24.585 34.9872 22.2311 35.751 19.7969 36C19.1781 36 18.5392 36 17.9404 36C14.7299 35.9948 11.579 35.1273 8.81641 33.4883C6.05407 31.8493 3.78055 29.4986 2.23242 26.6807C1.05556 24.5807 0.328166 22.2575 0.0966797 19.8604C-0.268538 16.3448 0.407313 12.7992 2.04004 9.66602C3.67282 6.53278 6.1904 3.95025 9.27832 2.24121C11.3739 1.0622 13.6918 0.333536 16.084 0.101562ZM31.9121 4.00195C32.1914 3.86829 32.5055 3.82452 32.8105 3.87695C33.1156 3.92939 33.3973 4.07469 33.6162 4.29395C33.8351 4.51327 33.9809 4.79585 34.0332 5.10156C34.0855 5.40709 34.0415 5.72123 33.9082 6.00098L15.9443 24.001C15.6897 24.2918 15.3313 24.4715 14.9463 24.501C14.5613 24.4714 14.2028 24.2919 13.9482 24.001L7.96094 18.001C7.82752 17.7211 7.78359 17.4063 7.83594 17.1006C7.88831 16.795 8.0341 16.5132 8.25293 16.2939C8.47183 16.0746 8.75348 15.9284 9.05859 15.876C9.3636 15.8236 9.67778 15.8673 9.95703 16.001L14.8867 20.9404L31.9121 4.00195Z" fill="#1CA750"/>
</g>
<defs>
<clipPath id="clip0_745_5611">
<rect width="36" height="36" fill="white"/>
</clipPath>
</defs>
</svg>
