<svg width="36" height="36" viewBox="0 0 36 36" fill="none" xmlns="http://www.w3.org/2000/svg">
<path d="M14.4883 0.345703C17.9799 -0.348831 21.5996 0.00774011 24.8887 1.37012C28.1776 2.73251 30.989 5.04 32.9668 8C34.9445 10.96 36 14.4401 36 18C36 22.7739 34.1032 27.3519 30.7275 30.7275C27.3519 34.1032 22.7739 36 18 36C14.4401 36 10.96 34.9445 8 32.9668C5.04 30.989 2.73251 28.1776 1.37012 24.8887C0.00774011 21.5996 -0.348831 17.9799 0.345703 14.4883C1.04024 10.9966 2.75513 7.78979 5.27246 5.27246C7.78979 2.75513 10.9966 1.04024 14.4883 0.345703ZM18 3C15.0333 3 12.1328 3.8801 9.66602 5.52832C7.1995 7.17652 5.27684 9.51905 4.1416 12.2598C3.00632 15.0006 2.70931 18.0171 3.28809 20.9268C3.86691 23.8363 5.29586 26.5087 7.39355 28.6064C9.49125 30.7041 12.1637 32.1331 15.0732 32.7119C17.9829 33.2907 20.9994 32.9937 23.7402 31.8584C26.481 30.7232 28.8235 28.8005 30.4717 26.334C32.1199 23.8672 33 20.9667 33 18C33 14.0218 31.4195 10.2066 28.6064 7.39355C25.7934 4.58051 21.9782 3 18 3ZM23.9893 10.5381C24.3777 10.545 24.7487 10.7018 25.0234 10.9766C25.2982 11.2513 25.455 11.6223 25.4619 12.0107C25.4688 12.3993 25.3245 12.7752 25.0596 13.0596L20.1191 18L25.0596 22.9404C25.3405 23.2217 25.499 23.6025 25.499 24C25.499 24.3975 25.3404 24.7783 25.0596 25.0596C24.9211 25.1998 24.7562 25.3112 24.5742 25.3867C24.3922 25.4623 24.1971 25.5009 24 25.5C23.803 25.5009 23.6078 25.4622 23.4258 25.3867C23.2438 25.3112 23.0789 25.1998 22.9404 25.0596L18 20.1191L13.0596 25.0596C12.9211 25.1998 12.7562 25.3112 12.5742 25.3867C12.3922 25.4623 12.197 25.5009 12 25.5C11.803 25.5009 11.6078 25.4622 11.4258 25.3867C11.2438 25.3112 11.0779 25.1998 10.9395 25.0596C10.6588 24.7784 10.501 24.3973 10.501 24C10.501 23.6027 10.6588 23.2216 10.9395 22.9404L15.8799 17.999L10.9404 13.0596C10.6755 12.7752 10.5312 12.3993 10.5381 12.0107C10.545 11.6222 10.7018 11.2513 10.9766 10.9766C11.2513 10.7018 11.6222 10.545 12.0107 10.5381C12.3993 10.5312 12.7752 10.6755 13.0596 10.9404L17.999 15.8799L22.9395 10.9404C23.2238 10.6755 23.6007 10.5312 23.9893 10.5381Z" fill="#DA342C"/>
</svg>
